<?xml version="1.0" encoding="UTF-8" standalone="no"?>
<!-- Created with Inkscape (http://www.inkscape.org/) -->

<svg
   width="1024mm"
   height="1024mm"
   viewBox="0 0 1024 1024"
   version="1.1"
   id="svg1"
   xml:space="preserve"
   xmlns="http://www.w3.org/2000/svg"
   xmlns:svg="http://www.w3.org/2000/svg"><defs
     id="defs1" /><g
     id="layer1"
     transform="translate(-99.246211,-18.91082)"><g
       id="g1"
       transform="matrix(0.44065714,0,0,0.44065714,5.2375909,131.82549)"><path
         fill="#000000"
         opacity="1"
         stroke="none"
         d="m 1868.264,856.03795 c -47.0177,40.3618 -101.8391,66.1409 -153.8699,96.358 -45.3031,26.31 -90.1233,53.20075 -131.5037,85.64765 -46.1334,36.1736 -99.0865,60.6213 -151.8818,85.1713 -38.2111,17.7682 -76.3047,35.7891 -115.3396,54.1145 7.7814,5.3012 17.0342,7.7749 19.5117,17.6125 1.6439,6.527 0.9517,13.1764 -1.7555,18.6837 -5.561,11.3143 -16.385,15.1424 -27.9917,13.2312 -11.8519,-1.9513 -17.9581,-18.6936 -14.868,-36.8836 -60.8741,25.0446 -125.712,38.2866 -186.4694,64.3044 -36.5642,15.6577 -76.8955,21.994 -113.92775,37.7577 -25.6376,10.9135 -51.0455,22.2177 -78.3861,29.2436 -59.9362,15.4022 -120.70822,22.2298 -182.19474,18.3512 -31.10452,-1.9619 -60.98417,-10.8046 -83.74437,-35.7189 -12.51434,-13.6989 -19.17474,-29.9682 -21.61402,-46.9191 -3.52007,-24.459 -2.54132,-49.1694 1.38322,-74.1386 9.80386,-62.3757 48.81294,-110.5043 76.56127,-164.1296 4.83354,-9.3412 11.45289,-17.7788 14.5464,-29.05825 -6.06905,-4.5839 -13.77245,-7.3491 -17.61255,-14.9144 -7.64428,-15.0598 -3.09803,-38.0099 9.89748,-47.0745 11.59432,-8.0868 35.76598,-4.4813 45.46291,9.0522 5.40755,7.5469 19.90223,7.8309 17.67604,19.9069 -1.68192,9.1224 -6.41291,17.9159 -10.91237,26.2481 -28.44271,52.67285 -51.3579,107.65035 -68.05305,165.08575 -5.85659,20.1476 -11.72396,40.9257 -12.83499,61.6703 -1.64451,30.705 35.16486,60.9114 67.21586,58.497 44.31887,-3.3387 88.81281,-5.5134 132.66611,-12.8364 42.0487,-7.0221 83.6868,-16.4747 125.58445,-24.444 19.2095,-3.654 38.5177,-7.8447 57.9463,-8.9889 18.9913,-1.1184 36.316,-6.0553 53.0745,-14.1578 34.8352,-16.8421 72.7298,-25.0257 108.762,-38.5735 55.13,-20.7289 106.5671,-48.4919 158.2184,-76.3776 51.5372,-27.8238 104.9581,-52.1443 157.3595,-78.388 32.2284,-16.14055 62.1335,-36.27815 91.7982,-56.56235 53.8022,-36.7888 109.9461,-69.859 164.5604,-105.3125 48.8768,-31.7292 94.4359,-68.20846 138.9373,-105.89062 4.0065,-3.39274 8.1596,-6.75523 12.6913,-9.35271 6.7158,-3.8499 14.329,-9.77193 21.3998,-2.11646 6.6922,7.24557 1.8032,15.57231 -2.4757,21.88494 -5.8972,8.70013 -13.1196,16.62285 -20.4876,24.18318 -25.125,25.77977 -51.2502,50.52547 -79.3303,74.83367 z"
         id="path1"
         style="fill:#6366f1;fill-opacity:1;stroke:#000000;stroke-width:3.18284;stroke-opacity:0.695809" /><path
         fill="#000000"
         opacity="1"
         stroke="none"
         d="m 1641.2725,845.26555 c 11.5509,-8.4952 22.1672,-16.3482 35.4684,-26.1872 -12.7278,-1.4254 -24.1413,1.054 -32.4086,-8.0312 -7.4183,-8.15226 -13.3086,-16.43604 -12.5769,-28.035 0.9066,-14.36899 13.8588,-27.57771 28.9294,-29.37732 22.5673,-2.69508 28.5386,3.25248 42.3629,42.34452 6.7602,0.50281 10.1242,-4.95552 14.1816,-8.69562 9.4348,-8.69692 19.5638,-16.1685 31.3816,-21.35385 5.9469,-2.60962 11.8349,-6.32848 16.8395,0.98306 4.8077,7.02306 4.5385,13.54569 -2.2472,19.73096 -19.5668,17.83565 -39.6946,35.15775 -58.1262,54.11635 -39.5704,40.702 -91.019,63.1772 -138.4358,91.747 -25.4678,15.3446 -48.68,33.7417 -73.3977,49.9821 -47.0296,30.90015 -100.0794,50.22115 -149.8433,75.84545 -37.0231,19.0637 -77.4339,27.2728 -115.8283,41.7498 -42.9021,16.1764 -86.0745,32.1315 -129.702,45.8814 -47.771,15.0557 -97.8052,23.924 -148.17335,10.7823 -22.6903,-5.92 -39.2341,-19.6002 -44.8473,-44.2655 -9.9407,-43.6798 2.874,-82.4022 24.364,-119.54105 12.7172,-21.978 25.2472,-44.0639 37.8603,-66.1019 6.8497,-11.9687 19.4147,-18.0791 37.09115,-17.5002 4.2549,14.4162 -5.66315,25.3662 -11.49475,35.9126 -21.1912,38.3254 -34.0258,79.48595 -45.0432,121.40655 -5.1971,19.7751 10.8283,38.9553 34.1797,40.0362 33.50545,1.5511 66.29125,-5.0235 99.11905,-10.6098 18.6802,-3.1788 37.619,-5.2124 56.0272,-9.5282 27.9788,-6.5587 56.7322,-7.4081 84.193,-19.3391 37.1332,-16.1335 77.6707,-25.0816 113.1152,-44.9057 76.9672,-43.04795 160.0365,-75.06475 231.0285,-129.06435 23.451,-17.8377 49.9452,-31.6737 75.9831,-47.9818 z"
         id="path2"
         style="fill:#6366f1;fill-opacity:1;stroke:#000000;stroke-width:3.18284;stroke-opacity:0.695809" /><path
         fill="#000000"
         opacity="1"
         stroke="none"
         d="m 1240.8782,658.44659 c -73.351,47.53461 -152.7731,82.26352 -224.6283,130.04077 -53.71775,35.71749 -107.09795,71.92409 -153.95805,116.70689 -1.1489,1.0979 -2.1692,2.3327 -3.3375,3.408 -8.9526,8.2409 -19.9533,13.833 -29.2258,3.5684 -9.0989,-10.0722 -1.4965,-19.3934 7.276,-26.8713 49.9421,-42.5709 99.4349,-85.67763 149.8106,-127.72798 39.35315,-32.84938 86.11745,-53.31575 131.51485,-76.07457 61.4347,-30.79884 122.3289,-62.27668 179.1552,-101.70619 41.2842,-28.64531 89.4233,-45.50616 136.0421,-64.17218 58.2617,-23.32791 116.9543,-45.58295 175.5274,-68.12946 16.1204,-6.20519 33.4484,-4.90614 50.1742,-5.97531 23.7545,-1.5183 47.6842,-0.29582 71.5391,-0.2493 7.0269,0.008 13.7811,0.50905 17.7547,11.65124 -179.6114,42.80229 -342.9494,124.32289 -507.6445,205.53082 z"
         id="path3"
         style="fill:#6366f1;fill-opacity:1;stroke:#000000;stroke-width:3.18284;stroke-opacity:0.695809" /><path
         fill="#000000"
         opacity="1"
         stroke="none"
         d="m 2196.9581,490.20804 c -40.7135,79.61197 -100.5768,142.2205 -163.596,202.28064 -3.7701,3.59309 -7.6197,6.20895 -12.5595,2.83246 -5.473,-3.74071 -2.6574,-8.97456 -0.7715,-12.89527 11.1963,-23.27381 23.1059,-46.20489 34.2706,-69.49329 18.733,-39.07451 45.9531,-73.83255 60.5483,-114.8205 11.6569,-32.73593 -1.6048,-62.45446 -18.9979,-89.59338 -6.2742,-9.78976 -19.0068,-13.26965 -30.9918,-13.55615 -47.6315,-1.13899 -95.6561,-4.20567 -142.322,7.27748 -28.2054,6.94054 -57.8904,4.28315 -85.3509,16.47105 -12.1165,5.37767 -27.1295,3.90223 -40.6492,-0.4053 -4.1878,-1.33406 -7.9523,-3.51443 -8.1303,-8.60188 -0.1541,-4.39603 3.2911,-6.13159 6.4847,-8.18454 16.7242,-10.75078 35.5878,-16.13968 54.4899,-20.90763 36.7113,-9.26002 73.5962,-17.85295 110.5088,-26.28507 24.5786,-5.61445 49.3286,-10.47832 74.0042,-15.66604 20.6766,-4.34664 41.3632,-8.42773 62.3758,-11.11785 24.4606,-3.13161 47.5762,-0.1682 68.762,12.41627 37.7543,22.42647 57.4395,76.06953 43.7195,117.88898 -3.4507,10.51781 -7.6062,20.80453 -11.7946,32.35932 z"
         id="path4"
         style="fill:#6366f1;fill-opacity:1;stroke:#000000;stroke-width:3.18284;stroke-opacity:0.695809" /><path
         fill="#000000"
         opacity="1"
         stroke="none"
         d="m 1522.5734,717.26587 c 12.0571,-4.36037 22.56,-0.5328 32.4536,2.11312 14.4933,3.87548 17.9277,22.88314 8.6348,38.90902 -14.2492,24.57254 -36.2277,41.38246 -58.7467,57.09194 -54.7459,38.1916 -113.3788,69.2745 -176.3508,91.7704 -21.3506,7.6272 -43.3385,13.3248 -65.8824,15.7516 -13.5239,1.4558 -26.7742,-1.0732 -34.1127,-14.6951 -7.8494,-14.571 0.1682,-26.6983 7.8774,-37.9768 11.8172,-17.2898 28.6196,-29.7511 45.3194,-41.7618 65.2108,-46.90001 135.7506,-83.44634 212.8749,-106.59801 8.5279,-2.55982 17.7062,-2.95343 27.9325,-4.60437 z"
         id="path5"
         style="fill:#6366f1;fill-opacity:1;stroke:#000000;stroke-width:3.18284;stroke-opacity:0.695809" /><path
         fill="#000000"
         opacity="1"
         stroke="none"
         d="m 1800.7289,749.13951 c 2.928,-37.01804 14.9858,-69.55475 33.8524,-99.84489 6.1429,-9.8625 10.9264,-20.56321 16.8821,-30.55216 11.838,-19.85569 4.2203,-38.14775 -5.2866,-55.41117 -5.4297,-9.85969 -17.0567,-11.45508 -27.7817,-12.44224 -31.5459,-2.90367 -62.2865,3.31957 -92.8212,9.43926 -21.6798,4.34501 -43.2434,2.85713 -64.8995,2.98485 -4.2425,0.0277 -8.4666,-1.08134 -10.7531,-6.74943 7.2047,-13.11356 21.9166,-16.16792 34.114,-19.13985 45.023,-10.97006 89.8051,-23.00332 135.6118,-30.967 22.7321,-3.95209 44.0048,-8.42611 66.5692,0.57362 19.3729,7.72659 34.4072,26.56145 36.5611,47.28194 3.0574,29.41274 -6.1628,54.9282 -21.0246,79.54802 -13.0071,21.54802 -31.4124,38.52624 -46.6816,58.12211 -3.8543,4.94628 -7.3206,10.19458 -11.7955,16.46788 20.9183,9.83221 25.9187,26.52658 21.1186,46.47164 -2.8636,11.89894 -20.0574,21.94733 -34.0294,21.55597 -17.0379,-0.47871 -25.6331,-10.56704 -29.636,-27.33855 z"
         id="path6"
         style="fill:#6366f1;fill-opacity:1;stroke:#000000;stroke-width:3.18284;stroke-opacity:0.695809" /><path
         fill="#000000"
         opacity="1"
         stroke="none"
         d="m 1532.4934,654.68531 c -65.725,18.28337 -129.1125,38.96718 -190.3498,66.68252 -50.4429,22.82998 -102.3394,42.40144 -148.9793,72.90461 -10.6098,6.93887 -20.974,14.26711 -31.7517,20.92981 -7.9218,4.8972 -15.6122,3.5694 -20.8847,-4.2126 -5.4233,-8.0042 -1.099,-14.33629 5.6534,-18.76529 44.5267,-29.20519 85.1476,-64.97343 135.918,-83.77261 34.5714,-12.801 70.698,-22.42343 103.1188,-39.7117 50.751,-27.06274 104.1655,-42.82104 160.9995,-47.80311 17.8855,-1.56773 36.4046,-4.50173 57.5765,6.12907 -24.314,13.87672 -48.9452,16.36315 -71.3007,27.6193 z"
         id="path7"
         style="fill:#6366f1;fill-opacity:1;stroke:#000000;stroke-width:3.18284;stroke-opacity:0.695809" /><path
         fill="#000000"
         opacity="1"
         stroke="none"
         d="m 1072.9327,531.77803 c -9.1412,24.6248 -7.1299,49.95394 -12.5061,74.15164 -2.2361,10.06511 -1.3248,20.83247 -6.8987,30.93686 -9.4775,-1.45557 -12.9741,-7.78291 -13.7277,-15.42533 -2.6574,-26.94345 -11.8173,-52.49871 -16.3628,-79.03598 -2.0849,-12.17063 -12.4072,-13.54455 -22.0566,-13.54795 -19.24615,-0.005 -37.17095,-8.20708 -56.37795,-8.35035 -3.8841,-0.0277 -8.6124,-0.80675 -11.6587,-7.18437 10.8679,-16.03076 30.4852,-14.58581 46.2429,-20.70139 4.2775,-1.66025 9.5878,-0.47572 14.099,-1.74878 25.29425,-7.14 29.08595,-11.19792 29.29585,-39.93725 0.16,-21.94171 3.2991,-43.23656 8.0975,-64.43393 1.1121,-4.91223 0.737,-10.85467 7.4293,-14.05251 8.6407,6.14556 10.8469,15.7061 12.7506,25.42697 4.4643,22.79147 9.0629,45.54429 14.0818,68.22904 3.3015,14.9209 10.9443,19.13048 23.9263,19.45904 22.213,0.56179 42.9715,7.98485 64.9363,13.38536 -23.2459,21.1378 -54.3995,20.12647 -81.271,32.82893 z"
         id="path8"
         style="fill:#6366f1;fill-opacity:1;stroke:#000000;stroke-width:3.18284;stroke-opacity:0.695809" /><path
         fill="#000000"
         opacity="1"
         stroke="none"
         d="m 1268.4881,1420.229 c -12.4917,-1.9434 -22.1183,-6.6446 -30.7841,-14.8901 6.6975,-10.168 17.4506,-7.7524 25.9102,-10.5669 7.4667,-2.4841 15.3125,-4.106 23.1172,-5.2475 33.1998,-4.8559 32.5634,-4.8074 35.9959,-37.5741 1.9205,-18.3316 5.9523,-36.4095 7.2336,-54.9267 0.5169,-7.468 3.7167,-15.4243 12.6578,-21.4497 10.255,13.1386 10.3232,29.6588 12.6917,44.0054 2.5523,15.4596 8.322,30.2309 8.7519,46.362 0.3299,12.3713 11.6911,16.5198 23.2707,16.8787 15.3465,0.4764 30.7071,0.5499 46.0456,1.1835 5.7751,0.2381 12.8258,0.7691 14,7.835 1.2395,7.4555 -4.4943,10.1494 -10.9332,13.0861 -17.3619,7.9177 -35.1881,14.3545 -53.6044,18.9908 -9.8406,2.4772 -14.0997,7.2725 -13.6325,17.6742 1.4268,31.7692 -9.9707,62.6802 -6.7105,94.6692 0.4635,4.5431 -0.3516,9.6118 -6.9361,12.0202 -6.9698,-6.4979 -10.6084,-15.1336 -12.5138,-24.3119 -5.2401,-25.2391 -10.1885,-50.5446 -14.806,-75.9052 -2.5533,-14.0227 -9.8548,-21.7082 -24.5673,-21.7012 -11.6144,0 -23.3921,0.5845 -35.1867,-6.1318 z"
         id="path9"
         style="fill:#6366f1;fill-opacity:1;stroke:#000000;stroke-width:3.18284;stroke-opacity:0.695809" /><path
         fill="#000000"
         opacity="1"
         stroke="none"
         d="m 2078.3924,1087.6196 c -55.3207,11.6599 -56.3671,11.6633 -57.1596,54.51 -0.4006,21.6652 -1.6073,43.3158 -2.5039,64.9708 -0.1521,3.6839 -0.4275,7.4347 -5.4955,9.7908 -6.7159,-4.3248 -11.6969,-10.8106 -12.2061,-18.6875 -1.7212,-26.6284 -14.557,-50.6726 -17.0151,-77.1262 -0.823,-8.8505 -6.002,-14.4438 -16.177,-16.7421 -16.3331,-3.6887 -32.6844,-1.8063 -48.9502,-3.2026 -11.7324,-1.0067 -24.5757,-1.058 -30.959,-17.4737 22.9863,-6.1597 44.9212,-13.0641 67.32,-17.7507 22.3117,-4.6684 23.3865,-4.0519 22.7973,-27.5398 -0.548,-21.827 1.1697,-43.22605 6.8863,-64.30275 1.1077,-4.0853 1.6939,-8.3682 8.4,-10.5801 8.3023,8.6124 9.1035,20.9083 12.1804,31.9152 4.3711,15.63575 7.8472,31.53165 11.3728,47.39065 2.5929,11.6644 8.974,16.2146 21.3176,15.7111 25.955,-1.0594 51.8601,0.6132 77.4248,5.8535 5.5911,1.1461 11.8221,0.9434 15.0684,10.8236 -21.4846,5.5586 -34.6925,8.5827 -52.3012,12.4398 z"
         id="path10"
         style="fill:#6366f1;fill-opacity:1;stroke:#000000;stroke-width:3.18284;stroke-opacity:0.695809" /><path
         fill="#000000"
         opacity="1"
         stroke="none"
         d="m 530.55027,857.13665 c -7.64078,-3.6859 -16.32394,-2.0382 -21.91498,-11.2999 11.69422,-8.6154 25.34004,-12.1615 39.0254,-13.2121 12.84052,-0.9862 24.09223,-7.5172 37.11169,-7.8522 7.53862,-0.1947 9.01423,-8.4316 8.53056,-14.9574 -1.78533,-24.08929 8.90128,-46.69262 7.92842,-70.76117 -0.31463,-7.79914 3.186,-15.53001 10.87773,-19.51241 6.60756,1.25939 7.81333,6.41421 8.24668,10.88606 2.49074,25.71068 10.90421,50.27987 14.27933,75.77572 1.55705,11.763 7.5464,17.2314 19.19482,19.2861 18.64714,3.2892 37.43798,6.3456 55.33213,13.016 3.97665,1.4826 8.14943,2.6051 9.76822,8.9486 -8.23689,9.6159 -21.3934,9.1208 -32.3049,11.2566 -11.40142,2.2317 -22.58085,5.436 -33.98968,7.3977 -9.36801,1.6107 -13.73556,6.9133 -15.4821,15.5479 -3.245,16.043 -6.59476,32.065 -9.85593,48.1049 -1.6247,7.9904 -4.63663,15.0583 -11.98074,19.4981 -8.72746,-2.1778 -7.22174,-9.5091 -8.46354,-15.3922 -3.91149,-18.5315 -7.96104,-37.0345 -11.76863,-55.5872 -1.57561,-7.6779 -7.01882,-9.5936 -13.73355,-10.8329 -16.561,-3.0564 -33.04319,-6.5389 -50.80093,-10.3102 z"
         id="path11"
         style="fill:#6366f1;fill-opacity:1;stroke:#000000;stroke-width:3.18284;stroke-opacity:0.695809" /><path
         fill="#000000"
         opacity="1"
         stroke="none"
         d="m 549.30044,1560.1647 c -8.33527,17.0103 -1.08994,36.2291 -11.18181,52.3392 -10.07429,-2.2691 -13.1742,-8.2092 -14.97798,-16.7843 -3.68674,-17.5263 -9.05262,-34.6987 -12.75993,-52.2216 -3.01646,-14.2575 -12.0313,-19.2209 -25.18707,-18.5012 -16.20922,0.8874 -30.76992,-7.6613 -46.83709,-7.5884 -3.66088,0.029 -7.02045,-2.3905 -7.69375,-7.7672 4.39943,-7.2992 12.08652,-10.2444 20.37575,-12.2238 13.37512,-3.1942 26.84275,-6.0404 40.11433,-9.6165 10.65761,-2.8714 16.24651,-9.0936 16.99146,-21.4617 1.45866,-24.221 4.92427,-48.3298 7.90031,-72.443 0.54454,-4.4156 0.37862,-9.8598 6.84827,-12.2059 8.56718,5.2793 10.99129,13.6405 12.67497,23.4768 3.64306,21.2835 8.84693,42.295 13.02047,63.4951 2.00244,10.1719 7.7172,13.4808 17.77758,13.4411 16.91176,-0.063 33.87574,0.6389 50.30333,5.6171 4.99543,1.5139 10.251,2.4297 13.70883,8.4485 -7.7447,9.2974 -19.15817,10.3803 -29.06179,14.0885 -10.86455,4.0678 -21.87293,7.9585 -33.10619,10.7823 -13.61822,3.4237 -19.25757,11.2288 -17.49282,25.1261 0.52056,4.0962 -0.68948,8.4121 -1.41687,13.9989 z"
         id="path12"
         style="fill:#6366f1;fill-opacity:1;stroke:#000000;stroke-width:3.18284;stroke-opacity:0.695809" /><path
         fill="#000000"
         opacity="1"
         stroke="none"
         d="m 2192.9048,813.14695 c 6.0893,13.6349 18.0734,13.0187 27.9592,12.1819 23.1693,-1.9613 44.5814,8.5769 67.4238,7.7966 2.1689,-0.076 4.4183,2.2053 6.0045,3.0563 1.1258,6.012 -2.2822,8.1565 -5.8688,8.8728 -14.9829,2.9923 -30.0192,7.369 -45.1095,7.6825 -13.6408,0.284 -25.798,4.9837 -38.6703,7.3688 -8.6541,1.6037 -8.0432,8.701 -7.9461,15.0347 0.3423,22.3309 -8.485,43.6645 -7.0281,66.1543 0.2658,4.0854 -1.6964,8.2582 -7.1616,12.6612 -8.3845,-13.17 -12.8295,-27.6802 -12.8763,-42.211 -0.046,-14.7935 -6.7469,-27.5598 -8.3946,-41.693 -0.9871,-8.4693 -8.4916,-9.3786 -15.9636,-9.3312 -15.8968,0.096 -31.6779,-1.33 -46.9336,-6.1605 -4.7578,-1.5067 -10.8474,-1.4908 -12.6145,-10.3289 12.0176,-6.5981 25.4531,-10.4945 39.3017,-11.7956 30.9588,-2.9089 37.1282,-8.6 37.3926,-40.02107 0.1277,-15.11593 1.9285,-29.16539 14.2399,-43.18242 10.03,21.05897 12.1612,42.11157 16.2453,63.91459 z"
         id="path13"
         style="fill:#6366f1;fill-opacity:1;stroke:#000000;stroke-width:3.18284;stroke-opacity:0.695809" /><path
         fill="#000000"
         opacity="1"
         stroke="none"
         d="m 1688.13,1048.8031 c 0.6111,-6.0399 1.0802,-10.8032 7.8664,-14.7512 9.3106,11.8574 11.4711,26.4448 13.1826,40.2371 3.6502,29.4117 7.3596,33.1097 36.876,35.0121 17.877,1.1523 35.6156,4.5206 53.3966,7.0335 2.7254,0.3851 4.7615,2.1705 6.1271,7.1774 -11.2846,7.9531 -25.7426,9.1487 -38.9035,11.7633 -12.34,2.4515 -24.8045,4.8123 -37.2199,6.8239 -11.503,1.864 -13.9201,7.242 -13.2503,17.0086 1.3887,20.2455 -2.991,40.0542 -5.001,60.0303 -0.6549,6.5116 -0.6028,13.9597 -6.8735,18.131 -6.3231,-0.2757 -7.9446,-4.629 -8.2282,-8.7314 -1.7117,-24.749 -8.9994,-48.399 -13.4752,-72.589 -1.9112,-10.3296 -6.3302,-12.7847 -15.721,-12.9707 -19.4561,-0.3853 -39.2914,2.3336 -58.039,-5.8191 -3.8733,-1.6844 -8.204,-2.3506 -10.3074,-7.1851 1.7692,-8.258 9.0957,-6.5789 14.8844,-8.0835 18.2903,-4.753 37.4136,-5.1039 55.5081,-11.0511 9.7462,-3.2034 12.75,-8.6333 12.0528,-18.9311 -0.9636,-14.2372 0.6661,-28.5625 7.125,-43.105 z"
         id="path14"
         style="fill:#6366f1;fill-opacity:1;stroke:#000000;stroke-width:3.18284;stroke-opacity:0.695809" /><path
         fill="#000000"
         opacity="1"
         stroke="none"
         d="m 2021.2144,181.66 c 16.6315,0 35.4081,-9.25911 35.0728,-41.64588 -0.1459,-13.9975 2.481,-29.17966 14.1343,-44.063457 8.7177,16.231657 11.2825,32.217987 13.8568,47.552167 4.7582,28.3466 5.7243,29.94963 33.3625,30.62237 13.2306,0.32209 26.441,1.66029 39.6474,2.70679 5.5659,0.44141 11.0743,2.06711 11.3084,8.75356 0.2264,6.48357 -4.8326,8.9415 -10.413,10.01536 -14.501,2.79065 -28.9308,6.23344 -43.5598,8.00844 -19.6586,2.38521 -22.7846,4.74071 -23.1695,24.16657 -0.3175,16.01637 -3.3539,31.56386 -6.9391,47.05888 -0.9443,4.07996 -1.4976,8.51168 -8.7509,10.49016 -7.4613,-10.17696 -7.1992,-23.78509 -12.0181,-35.30388 -0.7842,-1.87445 -0.4405,-4.19743 -0.7661,-6.28994 -4.9908,-32.04276 -6.7888,-33.26389 -38.6671,-33.91438 -12.6424,-0.25775 -25.2966,-2.02555 -37.8464,-3.80397 -5.5893,-0.79176 -11.5452,-2.50046 -13.6375,-11.75874 15.07,-6.1754 44.0205,-12.59405 48.3854,-12.59405 z"
         id="path15"
         style="fill:#6366f1;fill-opacity:1;stroke:#000000;stroke-width:3.18284;stroke-opacity:0.695809" /><path
         fill="#000000"
         opacity="1"
         stroke="none"
         d="m 582.80157,1405.1073 c -6.44491,-17.9862 1.19135,-31.0908 12.44971,-42.2455 8.47496,-8.3967 19.43213,-10.3032 31.00048,-6.2208 17.60677,6.2123 24.37797,16.6615 23.58747,36.3654 -0.60139,15.0041 -12.02,29.4894 -25.6007,32.4782 -17.71533,3.8989 -30.87334,-2.3292 -41.43696,-20.3773 z"
         id="path16"
         style="fill:#6366f1;fill-opacity:1;stroke:#000000;stroke-width:3.18284;stroke-opacity:0.695809" /><path
         fill="#000000"
         opacity="1"
         stroke="none"
         d="m 1502.9713,1185.4476 c -13.6982,-12.646 -16.5285,-37.6508 -6.4645,-49.0135 13.9522,-15.7527 36.0589,-18.5709 51.0969,-6.5141 13.8395,11.096 16.3042,33.1795 5.4209,48.5717 -10.5575,14.9321 -32.5782,18.3921 -50.0533,6.9559 z"
         id="path17"
         style="fill:#6366f1;fill-opacity:1;stroke:#000000;stroke-width:3.18284;stroke-opacity:0.695809" /><path
         fill="#000000"
         opacity="1"
         stroke="none"
         d="m 872.91665,618.8856 c 20.2853,5.96603 33.0536,25.14281 28.0297,40.39207 -7.2875,22.12076 -29.999,33.20505 -50.5957,24.69304 -16.5065,-6.82156 -25.0719,-29.68602 -16.2435,-47.20375 7.5315,-14.94403 21.5765,-19.2559 38.8095,-17.88136 z"
         id="path18"
         style="fill:#6366f1;fill-opacity:1;stroke:#000000;stroke-width:3.18284;stroke-opacity:0.695809" /><path
         fill="#000000"
         opacity="1"
         stroke="none"
         d="m 1588.0046,368.33349 c -13.5746,-19.22262 -13.183,-34.87143 0.3311,-47.79791 12.2978,-11.76254 32.8248,-14.0164 45.0793,-4.94939 14.983,11.08572 19.4992,37.68272 8.629,50.81754 -13.2627,16.02544 -37.4642,17.31713 -54.0397,1.92976 z"
         id="path19"
         style="fill:#6366f1;fill-opacity:1;stroke:#000000;stroke-width:3.18284;stroke-opacity:0.695809" /><path
         fill="#000000"
         opacity="1"
         stroke="none"
         d="m 2191.0198,565.01548 c 0.5206,-20.30424 7.9226,-32.03563 22.4886,-36.91322 14.5293,-4.86509 33.2596,-0.49304 40.4386,9.74565 8.6278,12.30515 9.7806,25.99172 2.6497,38.72075 -7.8631,14.03603 -21.6393,20.1371 -37.4211,17.54546 -15.2129,-2.49832 -25.717,-11.55543 -28.1558,-29.09864 z"
         id="path20"
         style="fill:#6366f1;fill-opacity:1;stroke:#000000;stroke-width:3.18284;stroke-opacity:0.695809" /><path
         fill="#000000"
         opacity="1"
         stroke="none"
         d="m 2174.762,726.21302 c -22.8674,16.1619 -35.2851,16.48793 -48.6802,2.17897 -15.5713,-16.6339 -16.6683,-32.07199 -3.2966,-46.39544 12.5257,-13.41699 33.927,-15.46783 47.7465,-4.57546 15.1776,11.96296 17.1163,30.28639 4.2303,48.79193 z"
         id="path21"
         style="fill:#6366f1;fill-opacity:1;stroke:#000000;stroke-width:3.18284;stroke-opacity:0.695809" /><path
         fill="#000000"
         opacity="1"
         stroke="none"
         d="m 1872.0098,1273.0972 c -0.224,22.5518 -6.5721,31.1708 -26.1887,36.9843 -13.1122,3.8857 -28.2096,-1.9653 -35.3445,-14.5166 -6.8873,-12.1155 -9.9337,-24.7497 -0.2293,-37.0779 9.1751,-11.6558 21.1028,-17.9532 36.0223,-14.818 14.7913,3.1081 24.4635,11.9849 25.74,29.4282 z"
         id="path22"
         style="fill:#6366f1;fill-opacity:1;stroke:#000000;stroke-width:3.18284;stroke-opacity:0.695809" /><path
         fill="#000000"
         opacity="1"
         stroke="none"
         d="m 927.82615,448.16834 c -25.9074,-13.99896 -31.258,-34.4333 -13.9436,-52.95841 9.4897,-10.15348 20.8795,-18.50858 36.3474,-11.23221 17.7061,8.32946 26.1615,21.41849 23.9627,36.93201 -1.9204,13.54924 -16.7122,26.57903 -32.4926,28.18857 -4.1519,0.4236 -8.4205,-0.30068 -13.8739,-0.93045 z"
         id="path23"
         style="fill:#6366f1;fill-opacity:1;stroke:#000000;stroke-width:3.18284;stroke-opacity:0.695809" /><path
         fill="#000000"
         opacity="1"
         stroke="none"
         d="m 1007.571,1507.7334 c 10.9979,-11.1044 23.1497,-17.3976 37.6883,-14.5646 16.5025,3.2152 29.9058,22.4966 27.1013,36.9461 -3.3032,17.0189 -24.0992,31.6558 -41.5994,29.2791 -15.8661,-2.1549 -29.9716,-21.5596 -27.7537,-38.7294 0.5263,-4.0771 2.527,-7.964 4.5635,-12.9312 z"
         id="path24"
         style="fill:#6366f1;fill-opacity:1;stroke:#000000;stroke-width:3.18284;stroke-opacity:0.695809" /><path
         fill="#000000"
         opacity="1"
         stroke="none"
         d="m 1590.0908,586.72913 c -22.0405,6.2833 -36.5277,0.91314 -41.8415,-14.72346 -7.8101,-22.98312 0.7758,-39.98932 24.4894,-48.50536 13.8563,-4.976 32.3585,3.62339 37.326,18.22093 6.2115,18.25353 3.8842,36.45461 -19.9739,45.00789 z"
         id="path25"
         style="fill:#6366f1;fill-opacity:1;stroke:#000000;stroke-width:3.18284;stroke-opacity:0.695809" /><path
         fill="#000000"
         opacity="1"
         stroke="none"
         d="m 1665.3726,239.42037 c -5.8839,-18.70901 2.146,-36.52065 17.9667,-42.06341 19.4719,-6.82178 40.5882,2.39113 46.9401,20.47952 5.3933,15.35899 -4.2373,34.82997 -20.3564,41.15613 -18.4445,7.23877 -35.2796,0.18584 -44.5504,-19.57224 z"
         id="path26"
         style="fill:#6366f1;fill-opacity:1;stroke:#000000;stroke-width:3.18284;stroke-opacity:0.695809" /><path
         fill="#000000"
         opacity="1"
         stroke="none"
         d="m 1996.2939,259.10775 c 25.3835,0.67036 37.2158,10.17397 37.9442,29.38768 0.6994,18.45595 -13.9277,34.41832 -32.6556,35.63544 -19.71,1.28102 -34.3863,-11.37033 -36.128,-31.14339 -1.5432,-17.51816 10.2379,-30.96569 30.8394,-33.87973 z"
         id="path27"
         style="fill:#6366f1;fill-opacity:1;stroke:#000000;stroke-width:3.18284;stroke-opacity:0.695809" /><path
         fill="#000000"
         opacity="1"
         stroke="none"
         d="m 1504.5031,1250.8586 c 15.0015,26.948 2.5734,52.9347 -24.7979,54.4782 -21.9417,1.2374 -37.6479,-12.0332 -37.5054,-31.6893 0.1358,-18.8421 18.9393,-35.4869 38.8951,-33.4292 8.1798,0.8433 17.1113,1.7264 23.4082,10.6403 z"
         id="path28"
         style="fill:#6366f1;fill-opacity:1;stroke:#000000;stroke-width:3.18284;stroke-opacity:0.695809" /><path
         fill="#000000"
         opacity="1"
         stroke="none"
         d="m 1273.1198,476.25323 c 17.426,-5.53364 36.0246,2.77593 41.1284,17.29994 7.1267,20.27982 -1.0668,37.2399 -21.8027,45.12893 -14.7399,5.60802 -34.5038,-2.78832 -40.9289,-17.38782 -7.9598,-18.08676 0.127,-35.66243 21.6032,-45.04105 z"
         id="path29"
         style="fill:#6366f1;fill-opacity:1;stroke:#000000;stroke-width:3.18284;stroke-opacity:0.695809" /><path
         fill="#000000"
         opacity="1"
         stroke="none"
         d="m 448.39571,1212.1866 c -13.16492,-14.67 -14.78158,-36.3148 -4.66675,-48.4739 10.56261,-12.6969 28.20075,-16.7014 41.49808,-9.4219 15.69218,8.5906 21.57286,29.7258 13.09401,47.0594 -9.01284,18.4258 -26.59527,22.5711 -49.92534,10.8364 z"
         id="path30"
         style="fill:#6366f1;fill-opacity:1;stroke:#000000;stroke-width:3.18284;stroke-opacity:0.695809" /><path
         fill="#000000"
         opacity="1"
         stroke="none"
         d="m 1142.892,1339.215 c -17.4357,-15.5618 -18.8386,-38.5653 -4.2675,-51.9361 15.303,-14.043 36.8118,-13.1321 48.9922,2.0747 7.4249,9.2698 9.2082,31.7921 3.222,40.6936 -7.116,10.5811 -27.8093,16.3295 -40.711,11.3774 -1.9644,-0.7542 -4.0666,-1.1493 -7.2357,-2.2096 z"
         id="path31"
         style="fill:#6366f1;fill-opacity:1;stroke:#000000;stroke-width:3.18284;stroke-opacity:0.695809" /><path
         fill="#000000"
         opacity="1"
         stroke="none"
         d="m 1483.532,405.72128 c -20.1405,2.77074 -37.6197,-11.07892 -39.8023,-30.09469 -1.7774,-15.48635 14.2025,-33.5095 31.8493,-35.92175 15.6751,-2.14271 34.442,13.91341 36.2219,30.9897 1.4667,14.07183 -8.4984,26.7501 -28.2689,35.02674 z"
         id="path32"
         style="fill:#6366f1;fill-opacity:1;stroke:#000000;stroke-width:3.18284;stroke-opacity:0.695809" /><path
         fill="#000000"
         opacity="1"
         stroke="none"
         d="m 2244.0861,359.50881 c -20.3673,-4.1683 -29.911,-19.27974 -26.805,-40.38815 2.3267,-15.81266 17.2864,-25.75904 36.8162,-24.47772 15.467,1.01417 28.2008,15.91799 28.033,32.80876 -0.1793,17.93487 -13.2617,31.13046 -31.9279,32.16905 -1.5798,0.0859 -3.1696,-0.003 -6.1163,-0.11168 z"
         id="path33"
         style="fill:#6366f1;fill-opacity:1;stroke:#000000;stroke-width:3.18284;stroke-opacity:0.695809" /><path
         fill="#000000"
         opacity="1"
         stroke="none"
         d="m 995.26905,1328.3433 c 16.67095,-4.2998 28.01825,1.7033 35.94675,14.6264 7.8618,12.8143 9.4396,25.4894 -2.5231,37.3333 -10.3042,10.2021 -30.50685,15.274 -42.20545,8.6821 -13.0712,-7.3653 -19.5476,-19.2778 -16.972,-34.491 2.3261,-13.7395 11.1404,-22.2135 25.7538,-26.1508 z"
         id="path34"
         style="fill:#6366f1;fill-opacity:1;stroke:#000000;stroke-width:3.18284;stroke-opacity:0.695809" /><path
         fill="#000000"
         opacity="1"
         stroke="none"
         d="m 812.43635,1481.6751 c 1.8434,-24.1951 8.7685,-32.7312 27.4627,-35.119 21.0805,-2.6928 32.4618,2.7098 35.7621,16.9752 5.3433,23.096 -1.4193,38.417 -20.1252,45.5936 -15.5982,5.9847 -30.4067,-1.0748 -39.8365,-19.0574 -1.2168,-2.3209 -2.1443,-4.7936 -3.2631,-8.3924 z"
         id="path35"
         style="fill:#6366f1;fill-opacity:1;stroke:#000000;stroke-width:3.18284;stroke-opacity:0.695809" /><path
         fill="#000000"
         opacity="1"
         stroke="none"
         d="m 1304.2919,338.68135 c 16.2694,-3.00393 29.7454,-1.55223 38.4548,13.19764 6.2535,10.59025 9.1472,21.03221 1.6259,32.60858 -8.8212,13.57724 -21.1941,17.85052 -36.6388,16.82445 -16.566,-1.10062 -22.0556,-12.78496 -25.4658,-26.07799 -3.676,-14.3291 4.119,-27.29517 22.0239,-36.55268 z"
         id="path36"
         style="fill:#6366f1;fill-opacity:1;stroke:#000000;stroke-width:3.18284;stroke-opacity:0.695809" /><path
         fill="#000000"
         opacity="1"
         stroke="none"
         d="m 865.55215,819.55305 c -13.0886,15.5641 -36.4562,18.1694 -49.7396,6.5738 -14.61052,-12.7546 -14.73928,-32.34447 -0.3229,-49.32158 9.8576,-11.60936 32.7563,-11.66301 45.8544,0.58514 12.8737,12.03802 8.851,26.68794 4.2092,42.16244 z"
         id="path37"
         style="fill:#6366f1;fill-opacity:1;stroke:#000000;stroke-width:3.18284;stroke-opacity:0.695809" /><path
         fill="#000000"
         opacity="1"
         stroke="none"
         d="m 815.24395,1161.2466 c -8.39742,17.6835 -17.89318,22.2528 -34.42066,17.3099 -13.73569,-4.1078 -19.30262,-13.7855 -17.98026,-27.5758 1.68857,-17.6048 15.52415,-26.0408 36.14661,-22.3864 13.80011,2.4452 20.27501,14.5899 16.25431,32.6523 z"
         id="path38"
         style="fill:#6366f1;fill-opacity:1;stroke:#000000;stroke-width:3.18284;stroke-opacity:0.695809" /><path
         fill="#000000"
         opacity="1"
         stroke="none"
         d="m 743.84525,1618.9312 c -5.3049,-14.601 -0.0527,-24.5191 10.82967,-32.3329 9.12917,-6.5517 18.44635,-6.8798 27.79476,-0.4722 10.79114,7.3963 10.88852,18.3704 9.56164,29.6413 -1.27304,10.8117 -9.34829,13.9231 -18.43831,16.5607 -13.39647,3.8868 -22.33099,-1.4239 -29.74776,-13.3967 z"
         id="path39"
         style="fill:#6366f1;fill-opacity:1;stroke:#000000;stroke-width:3.18284;stroke-opacity:0.695809" /><path
         fill="#000000"
         opacity="1"
         stroke="none"
         d="m 1059.4012,784.74742 c 16.1806,2.4017 23.4483,12.35305 24.2559,26.27463 0.627,10.8082 -4.7761,19.1455 -16.0155,22.8459 -14.1301,4.6518 -26.8909,-0.053 -33.5944,-12.9257 -6.0594,-11.6372 -1.5183,-23.58666 12.4315,-31.64515 3.5716,-2.06325 7.7594,-3.06011 12.9225,-4.54968 z"
         id="path40"
         style="fill:#6366f1;fill-opacity:1;stroke:#000000;stroke-width:3.18284;stroke-opacity:0.695809" /><path
         fill="#000000"
         opacity="1"
         stroke="none"
         d="m 1678.1829,639.71134 c -2.6549,-17.18755 4.6769,-29.62479 18.0119,-32.69769 14.5733,-3.35818 26.36,3.76271 31.3638,19.56971 4.0902,12.92127 -3.1355,21.63717 -13.1503,27.25592 -12.7144,7.13336 -26.267,1.52908 -36.2254,-14.12794 z"
         id="path41"
         style="fill:#6366f1;fill-opacity:1;stroke:#000000;stroke-width:3.18284;stroke-opacity:0.695809" /><path
         fill="#000000"
         opacity="1"
         stroke="none"
         d="m 1102.3518,1075.2653 c -20.8358,0.7617 -28.2496,-4.4394 -30.6633,-20.3062 -2.0995,-13.8015 5.2775,-24.6062 19.2274,-28.1623 11.7993,-3.0079 24.2626,3.7424 29.2014,15.816 5.3032,12.9652 -0.6515,24.6343 -17.7655,32.6525 z"
         id="path42"
         style="fill:#6366f1;fill-opacity:1;stroke:#000000;stroke-width:3.18284;stroke-opacity:0.695809" /><path
         fill="#000000"
         opacity="1"
         stroke="none"
         d="m 2298.7408,660.37256 c 1.6009,16.72919 -7.2534,28.52268 -21.4657,30.33563 -13.7944,1.75967 -24.9718,-6.67784 -28.0519,-22.15186 -2.6085,-13.10393 4.3773,-21.54955 15.8692,-25.9238 15.8199,-6.02129 26.1688,-0.48046 33.6484,17.74003 z"
         id="path43"
         style="fill:#6366f1;fill-opacity:1;stroke:#000000;stroke-width:3.18284;stroke-opacity:0.695809" /><path
         fill="#000000"
         opacity="1"
         stroke="none"
         d="m 474.021,1326.2915 c -12.33525,-11.8196 -10.62597,-24.5942 -3.65673,-36.5509 6.44616,-11.059 17.39868,-10.5827 28.12155,-6.6349 14.70679,5.4148 20.08309,17.8008 14.05947,31.5977 -6.67345,15.2854 -21.1709,20.0029 -38.52429,11.5881 z"
         id="path44"
         style="fill:#6366f1;fill-opacity:1;stroke:#000000;stroke-width:3.18284;stroke-opacity:0.695809" /><path
         fill="#000000"
         opacity="1"
         stroke="none"
         d="m 2085.7573,495.17078 c -12.3528,6.66935 -23.4219,7.85778 -32.5996,-2.77255 -7.4109,-8.58439 -10.3733,-18.50408 -4.4188,-29.2676 6.2527,-11.30318 16.5443,-13.77989 28.4933,-12.52966 11.5872,1.21217 15.6487,10.69671 19.133,19.1293 4.1937,10.14995 -1.6496,18.25649 -10.6079,25.44051 z"
         id="path45"
         style="fill:#6366f1;fill-opacity:1;stroke:#000000;stroke-width:3.18284;stroke-opacity:0.695809" /><path
         fill="#000000"
         opacity="1"
         stroke="none"
         d="m 2101.7311,932.10325 c 15.4748,-2.7931 24.8704,3.8315 29.7711,16.4225 3.9193,10.0698 -0.5456,18.5096 -8.5082,25.0476 -12.7048,10.432 -27.5052,9.2308 -35.9567,-2.7432 -7.8834,-11.1692 -4.3688,-27.0644 7.9012,-35.4137 1.7263,-1.1746 3.6936,-1.995 6.7926,-3.3132 z"
         id="path46"
         style="fill:#6366f1;fill-opacity:1;stroke:#000000;stroke-width:3.18284;stroke-opacity:0.695809" /><path
         fill="#000000"
         opacity="1"
         stroke="none"
         d="m 589.62436,1100.4713 c -12.58224,2.5643 -22.51245,0.6167 -28.86878,-9.9741 -5.12279,-8.5353 -4.01415,-17.4877 0.7865,-25.6282 7.22036,-12.2445 20.11408,-15.7812 31.16462,-9.2611 13.70681,8.0874 17.01091,20.076 9.22531,33.6655 -2.65527,4.6349 -5.55488,9.0743 -12.30753,11.1979 z"
         id="path47"
         style="fill:#6366f1;fill-opacity:1;stroke:#000000;stroke-width:3.18284;stroke-opacity:0.695809" /><path
         fill="#000000"
         opacity="1"
         stroke="none"
         d="m 1270.3789,1309.9015 c 13.4793,-4.737 25.9926,-8.0779 34.8822,5.502 6.7326,10.2848 4.1947,25.3539 -4.552,31.4628 -11.7749,8.2232 -25.9515,7.3505 -34.5389,-2.1266 -10.646,-11.7485 -9.9025,-19.8517 4.2087,-34.8382 z"
         id="path48"
         style="fill:#6366f1;fill-opacity:1;stroke:#000000;stroke-width:3.18284;stroke-opacity:0.695809" /><path
         fill="#000000"
         opacity="1"
         stroke="none"
         d="m 1792.002,296.79121 c 15.2839,11.14454 19.3055,22.10471 12.7649,31.9088 -9.1425,13.70375 -24.6736,17.75006 -36.9159,9.90839 -11.7801,-7.54547 -11.8634,-19.88331 -7.6964,-29.54195 5.1444,-11.9241 17.0363,-16.56151 31.8474,-12.27524 z"
         id="path49"
         style="fill:#6366f1;fill-opacity:1;stroke:#000000;stroke-width:3.18284;stroke-opacity:0.695809" /><path
         fill="#000000"
         opacity="1"
         stroke="none"
         d="m 1635.4647,1373.6574 c -6.9096,-14.4974 -3.0549,-25.0749 9.6006,-31.5692 12.1172,-6.2178 29.5363,-2.1171 33.6677,7.9658 4.3784,10.6866 4.8723,21.9329 -5.8024,30.0784 -9.9977,7.6292 -26.6786,4.9721 -37.4659,-6.475 z"
         id="path50"
         style="fill:#6366f1;fill-opacity:1;stroke:#000000;stroke-width:3.18284;stroke-opacity:0.695809" /><path
         fill="#000000"
         opacity="1"
         stroke="none"
         d="m 1379.7153,972.94835 c -16.0703,1.5339 -24.3238,-7.2718 -27.2075,-19.9314 -2.4189,-10.6182 3.7927,-18.7611 13.4084,-24.4336 9.7012,-5.7229 18.1898,-4.214 26.0706,2.6874 13.2774,11.6277 7.6162,32.4357 -12.2715,41.6776 z"
         id="path51"
         style="fill:#6366f1;fill-opacity:1;stroke:#000000;stroke-width:3.18284;stroke-opacity:0.695809" /><path
         fill="#000000"
         opacity="1"
         stroke="none"
         d="m 2014.7042,819.23865 c 10.6343,7.9308 15.664,17.3813 11.844,29.3986 -3.1891,10.0318 -11.9709,12.4049 -21.409,12.9232 -13.4373,0.7381 -24.2301,-7.7527 -25.681,-20.1997 -1.0948,-9.391 10.0963,-21.564 21.6221,-22.9702 4.0789,-0.497 8.3064,0.2222 13.6239,0.8476 z"
         id="path52"
         style="fill:#6366f1;fill-opacity:1;stroke:#000000;stroke-width:3.18284;stroke-opacity:0.695809" /><path
         fill="#000000"
         opacity="1"
         stroke="none"
         d="m 1153.5053,876.74385 c 9.8905,19.9742 5.5062,31.4664 -13.3083,38.1886 -11.0897,3.9625 -23.0757,-3.031 -26.3238,-15.9686 -2.7207,-10.8361 0.9207,-20.0464 10.0029,-26.297 10.1383,-6.9774 19.9553,-5.2628 29.6292,4.077 z"
         id="path53"
         style="fill:#6366f1;fill-opacity:1;stroke:#000000;stroke-width:3.18284;stroke-opacity:0.695809" /><path
         fill="#000000"
         opacity="1"
         stroke="none"
         d="m 1154.2417,634.60151 c -3.026,2.48172 -4.9882,4.47881 -7.3683,5.44297 -11.3445,4.59503 -22.1664,3.91225 -30.1222,-6.20578 -7.1532,-9.09716 -5.8445,-19.20609 0.9272,-27.92271 8.3055,-10.69102 20.5901,-8.67099 30.6906,-5.16814 11.3212,3.92617 11.5324,15.31692 10.0198,25.76223 -0.3598,2.4829 -2.1457,4.75898 -4.147,8.09143 z"
         id="path54"
         style="fill:#6366f1;fill-opacity:1;stroke:#000000;stroke-width:3.18284;stroke-opacity:0.695809" /><path
         fill="#000000"
         opacity="1"
         stroke="none"
         d="m 911.65285,1190.5716 c 9.1765,11.0354 11.623,22.8782 2.7471,32.5404 -5.8857,6.4069 -15.3148,11.6564 -25.8098,7.8143 -11.6765,-4.2745 -17.8251,-18.0262 -13.4837,-29.9475 4.9075,-13.4752 19.8501,-18.2043 36.5464,-10.4072 z"
         id="path55"
         style="fill:#6366f1;fill-opacity:1;stroke:#000000;stroke-width:3.18284;stroke-opacity:0.695809" /><path
         fill="#000000"
         opacity="1"
         stroke="none"
         d="m 515.53739,944.34665 c 12.91582,-6.636 21.4278,-1.4759 28.31333,7.8093 7.6463,10.3112 4.49444,19.9422 -3.03302,28.7277 -7.39656,8.633 -17.31248,7.9544 -26.18062,4.3325 -9.44091,-3.8556 -14.65206,-11.8957 -12.81541,-22.9051 1.30831,-7.8438 6.57919,-12.9175 13.71572,-17.9644 z"
         id="path56"
         style="fill:#6366f1;fill-opacity:1;stroke:#000000;stroke-width:3.18284;stroke-opacity:0.695809" /><path
         fill="#000000"
         opacity="1"
         stroke="none"
         d="m 1960.4517,635.61479 c 2.3008,-16.36288 11.5414,-23.1189 26.4694,-22.67603 10.2072,0.3028 17.0807,4.90654 19.1433,15.4321 2.4029,12.26312 0.4076,23.52475 -13.1436,26.5638 -17.7084,3.97158 -28.5929,0.78102 -32.4691,-19.31987 z"
         id="path57"
         style="fill:#6366f1;fill-opacity:1;stroke:#000000;stroke-width:3.18284;stroke-opacity:0.695809" /><path
         fill="#000000"
         opacity="1"
         stroke="none"
         d="m 1845.0348,160.25932 c -1.5858,-13.40226 0.2611,-23.73836 14.1943,-27.23427 14.3566,-3.60222 26.5418,1.40557 29.9216,13.28669 3.2134,11.29696 -0.4174,21.30073 -10.7878,27.07234 -11.6363,6.47677 -24.2619,1.46373 -33.3281,-13.12476 z"
         id="path58"
         style="fill:#6366f1;fill-opacity:1;stroke:#000000;stroke-width:3.18284;stroke-opacity:0.695809" /><path
         fill="#000000"
         opacity="1"
         stroke="none"
         d="m 1122.8375,360.16499 c -14.9714,-14.05317 -16.2614,-22.17115 -6.1987,-32.63115 9.5955,-9.97416 20.9763,-10.89203 30.687,-2.19336 6.9866,6.25854 10.0791,14.3687 5.4201,22.77993 -6.0889,10.99297 -15.06,17.89823 -29.9084,12.04458 z"
         id="path59"
         style="fill:#6366f1;fill-opacity:1;stroke:#000000;stroke-width:3.18284;stroke-opacity:0.695809" /><path
         fill="#000000"
         opacity="1"
         stroke="none"
         d="m 1797.6524,981.63325 c 13.7001,16.2868 13.3791,25.68225 0.314,35.40585 -8.2828,6.1648 -16.6048,6.5806 -24.9696,0.967 -8.6232,-5.7872 -9.6351,-14.6748 -8.2147,-24.00775 1.5443,-10.1475 8.7135,-13.648 17.9771,-14.6637 4.7926,-0.5251 9.472,-1.1476 14.8932,2.2986 z"
         id="path60"
         style="fill:#6366f1;fill-opacity:1;stroke:#000000;stroke-width:3.18284;stroke-opacity:0.695809" /><path
         fill="#000000"
         opacity="1"
         stroke="none"
         d="m 2140.8396,104.65389 c -17.1759,-1.82244 -23.523,-9.364557 -22.245,-24.734337 0.927,-11.14563 10.9264,-18.64673 23.6189,-17.71715 11.3672,0.83257 20.0497,10.79578 19.2256,22.5774 -0.8292,11.86235 -8.8608,17.056897 -20.5995,19.874087 z"
         id="path61"
         style="fill:#6366f1;fill-opacity:1;stroke:#000000;stroke-width:3.18284;stroke-opacity:0.695809" /><path
         fill="#000000"
         opacity="1"
         stroke="none"
         d="m 1875.017,1108.1591 c -10.3337,8.4389 -20.4007,8.9813 -29.998,2.0268 -9.213,-6.6761 -8.8441,-16.846 -5.3965,-25.981 3.599,-9.5356 12.6848,-12.4656 22.2398,-11.9945 16.2431,0.8003 22.2308,16.0736 13.1547,35.9487 z"
         id="path62"
         style="fill:#6366f1;fill-opacity:1;stroke:#000000;stroke-width:3.18284;stroke-opacity:0.695809" /><path
         fill="#000000"
         opacity="1"
         stroke="none"
         d="m 671.3339,700.99369 c 5.20978,-12.34987 12.31594,-19.90731 25.87605,-16.91877 8.52215,1.87788 14.19399,6.76958 15.88456,15.54065 2.59768,13.47788 -5.52865,25.13722 -18.23073,26.37743 -15.12858,1.47723 -22.98271,-6.35908 -23.52988,-24.99931 z"
         id="path63"
         style="fill:#6366f1;fill-opacity:1;stroke:#000000;stroke-width:3.18284;stroke-opacity:0.695809" /><path
         fill="#000000"
         opacity="1"
         stroke="none"
         d="m 1399.2221,233.5924 c -2.3757,-15.01384 3.0261,-24.47867 16.6637,-27.00738 9.8388,-1.8242 19.2496,1.47457 23.4259,11.62947 4.4727,10.87605 2.9942,20.91851 -8.5207,27.02553 -12.4532,6.60457 -23.2332,2.90946 -31.5689,-11.64762 z"
         id="path64"
         style="fill:#6366f1;fill-opacity:1;stroke:#000000;stroke-width:3.18284;stroke-opacity:0.695809" /><path
         fill="#000000"
         opacity="1"
         stroke="none"
         d="m 1213.5378,1497.7144 c -18.2688,-6.0198 -14.1728,-19.841 -10.597,-30.6892 3.5116,-10.6547 14.0367,-14.3057 24.9632,-10.1416 12.0247,4.5824 16.9038,13.9109 13.6469,26.6544 -3.6636,14.3334 -16.0049,13.1104 -28.0131,14.1764 z"
         id="path65"
         style="fill:#6366f1;fill-opacity:1;stroke:#000000;stroke-width:3.18284;stroke-opacity:0.695809" /></g></g></svg>
